<mxfile host="app.diagrams.net" agent="Mozilla/5.0 (Windows NT 10.0; Win64; x64) AppleWebKit/537.36 (KHTML, like Gecko) Chrome/134.0.0.0 Safari/537.36 OPR/119.0.0.0" scale="1" border="0" version="27.1.3">
  <diagram name="Page-1" id="g5cH1t0SmlpA87fEUwU-">
    <mxGraphModel dx="988" dy="562" grid="1" gridSize="10" guides="1" tooltips="1" connect="1" arrows="1" fold="1" page="1" pageScale="1" pageWidth="850" pageHeight="1100" math="0" shadow="0">
      <root>
        <mxCell id="0" />
        <mxCell id="1" parent="0" />
        <mxCell id="zhgyyv9RaAxmv2rtKqCu-2" value="Resident" style="shape=umlActor;verticalLabelPosition=bottom;verticalAlign=top;html=1;" parent="1" vertex="1">
          <mxGeometry x="70" y="1070" width="30" height="60" as="geometry" />
        </mxCell>
        <mxCell id="zhgyyv9RaAxmv2rtKqCu-3" value="Change resident status" style="ellipse;whiteSpace=wrap;html=1;align=center;fillColor=#fff2cc;strokeColor=light-dark(#000000, #6d5100);strokeWidth=2;" parent="1" vertex="1">
          <mxGeometry x="200" y="1080" width="100" height="40" as="geometry" />
        </mxCell>
        <mxCell id="zhgyyv9RaAxmv2rtKqCu-6" value="Upload evidence" style="ellipse;whiteSpace=wrap;html=1;align=center;fillColor=#fff2cc;strokeColor=light-dark(#000000, #6d5100);strokeWidth=2;" parent="1" vertex="1">
          <mxGeometry x="390" y="1000" width="100" height="40" as="geometry" />
        </mxCell>
        <mxCell id="zhgyyv9RaAxmv2rtKqCu-9" value="&amp;lt;&amp;lt;extend&amp;gt;&amp;gt;" style="html=1;verticalAlign=bottom;endArrow=open;dashed=1;endSize=8;curved=0;rounded=0;entryX=1;entryY=0;entryDx=0;entryDy=0;exitX=0;exitY=1;exitDx=0;exitDy=0;" parent="1" source="zhgyyv9RaAxmv2rtKqCu-6" target="zhgyyv9RaAxmv2rtKqCu-3" edge="1">
          <mxGeometry relative="1" as="geometry">
            <mxPoint x="420" y="1140" as="sourcePoint" />
            <mxPoint x="310" y="1140" as="targetPoint" />
          </mxGeometry>
        </mxCell>
        <mxCell id="zhgyyv9RaAxmv2rtKqCu-14" value="" style="endArrow=none;html=1;rounded=0;exitX=0.5;exitY=0.5;exitDx=0;exitDy=0;exitPerimeter=0;entryX=0;entryY=0.5;entryDx=0;entryDy=0;" parent="1" source="zhgyyv9RaAxmv2rtKqCu-2" target="zhgyyv9RaAxmv2rtKqCu-3" edge="1">
          <mxGeometry width="50" height="50" relative="1" as="geometry">
            <mxPoint x="150" y="1240" as="sourcePoint" />
            <mxPoint x="200" y="1190" as="targetPoint" />
          </mxGeometry>
        </mxCell>
        <mxCell id="zhgyyv9RaAxmv2rtKqCu-15" value="Manager" style="shape=umlActor;verticalLabelPosition=bottom;verticalAlign=top;html=1;" parent="1" vertex="1">
          <mxGeometry x="70" y="1410" width="30" height="60" as="geometry" />
        </mxCell>
        <mxCell id="mrIronFKmgXclrQIu5as-3" value="Change resident status" style="shape=umlFrame;whiteSpace=wrap;html=1;pointerEvents=0;width=150;height=30;" parent="1" vertex="1">
          <mxGeometry x="160" y="890" width="740" height="760" as="geometry" />
        </mxCell>
        <mxCell id="rDj5MFoZY1iwBANG8hvP-2" value="Provide information" style="ellipse;whiteSpace=wrap;html=1;align=center;fillColor=#fff2cc;strokeColor=light-dark(#000000, #6d5100);strokeWidth=2;" parent="1" vertex="1">
          <mxGeometry x="390" y="1080" width="100" height="40" as="geometry" />
        </mxCell>
        <mxCell id="rDj5MFoZY1iwBANG8hvP-3" value="&amp;lt;&amp;lt;include&amp;gt;&amp;gt;" style="html=1;verticalAlign=bottom;endArrow=open;dashed=1;endSize=8;curved=0;rounded=0;entryX=1;entryY=0.5;entryDx=0;entryDy=0;exitX=0;exitY=0.5;exitDx=0;exitDy=0;" parent="1" source="rDj5MFoZY1iwBANG8hvP-2" target="zhgyyv9RaAxmv2rtKqCu-3" edge="1">
          <mxGeometry relative="1" as="geometry">
            <mxPoint x="425" y="1180" as="sourcePoint" />
            <mxPoint x="285" y="1124" as="targetPoint" />
            <mxPoint as="offset" />
          </mxGeometry>
        </mxCell>
        <mxCell id="rDj5MFoZY1iwBANG8hvP-5" value="Review application" style="ellipse;whiteSpace=wrap;html=1;align=center;fillColor=#fff2cc;strokeColor=light-dark(#000000, #6d5100);strokeWidth=2;" parent="1" vertex="1">
          <mxGeometry x="200" y="1420" width="100" height="40" as="geometry" />
        </mxCell>
        <mxCell id="rDj5MFoZY1iwBANG8hvP-8" value="Validate information" style="ellipse;whiteSpace=wrap;html=1;align=center;fillColor=#fff2cc;strokeColor=light-dark(#000000, #6d5100);strokeWidth=2;" parent="1" vertex="1">
          <mxGeometry x="390" y="1420" width="100" height="40" as="geometry" />
        </mxCell>
        <mxCell id="rDj5MFoZY1iwBANG8hvP-9" value="Approve resident status update" style="ellipse;whiteSpace=wrap;html=1;align=center;fillColor=#fff2cc;strokeColor=light-dark(#000000, #6d5100);strokeWidth=2;" parent="1" vertex="1">
          <mxGeometry x="560" y="1350" width="100" height="40" as="geometry" />
        </mxCell>
        <mxCell id="rDj5MFoZY1iwBANG8hvP-10" value="&amp;lt;&amp;lt;include&amp;gt;&amp;gt;" style="html=1;verticalAlign=bottom;endArrow=open;dashed=1;endSize=8;curved=0;rounded=0;entryX=1;entryY=0.5;entryDx=0;entryDy=0;exitX=0;exitY=0.5;exitDx=0;exitDy=0;" parent="1" source="rDj5MFoZY1iwBANG8hvP-8" target="rDj5MFoZY1iwBANG8hvP-5" edge="1">
          <mxGeometry x="-0.1111" relative="1" as="geometry">
            <mxPoint x="355" y="1570" as="sourcePoint" />
            <mxPoint x="210" y="1570" as="targetPoint" />
            <mxPoint as="offset" />
          </mxGeometry>
        </mxCell>
        <mxCell id="rDj5MFoZY1iwBANG8hvP-14" value="&amp;lt;&amp;lt;extend&amp;gt;&amp;gt;" style="html=1;verticalAlign=bottom;endArrow=open;dashed=1;endSize=8;curved=0;rounded=0;entryX=1;entryY=0;entryDx=0;entryDy=0;exitX=0;exitY=1;exitDx=0;exitDy=0;" parent="1" source="rDj5MFoZY1iwBANG8hvP-9" target="rDj5MFoZY1iwBANG8hvP-8" edge="1">
          <mxGeometry x="0.0539" y="7" relative="1" as="geometry">
            <mxPoint x="465" y="1630" as="sourcePoint" />
            <mxPoint x="340" y="1630" as="targetPoint" />
            <mxPoint as="offset" />
          </mxGeometry>
        </mxCell>
        <mxCell id="rDj5MFoZY1iwBANG8hvP-15" value="Condition: Manager decided to update resident status&lt;div&gt;Extension point:&amp;nbsp;information validation successful&lt;/div&gt;" style="whiteSpace=wrap;html=1;align=left;" parent="1" vertex="1">
          <mxGeometry x="400" y="1270" width="170" height="65" as="geometry" />
        </mxCell>
        <mxCell id="rDj5MFoZY1iwBANG8hvP-18" value="" style="html=1;verticalAlign=bottom;endArrow=open;dashed=1;endSize=8;curved=0;rounded=0;exitX=0.5;exitY=1;exitDx=0;exitDy=0;" parent="1" source="rDj5MFoZY1iwBANG8hvP-15" edge="1">
          <mxGeometry x="0.75" y="-30" relative="1" as="geometry">
            <mxPoint x="-185" y="1480" as="sourcePoint" />
            <mxPoint x="550" y="1390" as="targetPoint" />
            <mxPoint as="offset" />
          </mxGeometry>
        </mxCell>
        <mxCell id="Y3pDpvInY4SfBalGoj8F-1" value="Choose resident status" style="ellipse;whiteSpace=wrap;html=1;align=center;fillColor=#fff2cc;strokeColor=light-dark(#000000, #6d5100);strokeWidth=2;" parent="1" vertex="1">
          <mxGeometry x="390" y="1160" width="100" height="40" as="geometry" />
        </mxCell>
        <mxCell id="Y3pDpvInY4SfBalGoj8F-2" value="&amp;lt;&amp;lt;include&amp;gt;&amp;gt;" style="html=1;verticalAlign=bottom;endArrow=open;dashed=1;endSize=8;curved=0;rounded=0;exitX=0;exitY=0;exitDx=0;exitDy=0;entryX=1;entryY=1;entryDx=0;entryDy=0;" parent="1" source="Y3pDpvInY4SfBalGoj8F-1" target="zhgyyv9RaAxmv2rtKqCu-3" edge="1">
          <mxGeometry x="-0.25" relative="1" as="geometry">
            <mxPoint x="780" y="1250" as="sourcePoint" />
            <mxPoint x="780" y="1180" as="targetPoint" />
            <mxPoint as="offset" />
          </mxGeometry>
        </mxCell>
        <mxCell id="Y3pDpvInY4SfBalGoj8F-3" value="Condition: Resident wants to add additional information&lt;div&gt;Extension point: additional information needed&lt;/div&gt;" style="whiteSpace=wrap;html=1;align=left;" parent="1" vertex="1">
          <mxGeometry x="180" y="960" width="160" height="60" as="geometry" />
        </mxCell>
        <mxCell id="Y3pDpvInY4SfBalGoj8F-4" value="" style="html=1;verticalAlign=bottom;endArrow=open;dashed=1;endSize=8;curved=0;rounded=0;exitX=0.5;exitY=1;exitDx=0;exitDy=0;" parent="1" source="Y3pDpvInY4SfBalGoj8F-3" edge="1">
          <mxGeometry x="0.75" y="-30" relative="1" as="geometry">
            <mxPoint x="700" y="1243" as="sourcePoint" />
            <mxPoint x="310" y="1070" as="targetPoint" />
            <mxPoint as="offset" />
          </mxGeometry>
        </mxCell>
        <mxCell id="Y3pDpvInY4SfBalGoj8F-5" value="&amp;lt;&amp;lt;include&amp;gt;&amp;gt;" style="html=1;verticalAlign=bottom;endArrow=open;dashed=1;endSize=8;curved=0;rounded=0;exitX=0.5;exitY=0;exitDx=0;exitDy=0;entryX=0.5;entryY=1;entryDx=0;entryDy=0;" parent="1" source="rDj5MFoZY1iwBANG8hvP-5" target="zhgyyv9RaAxmv2rtKqCu-3" edge="1">
          <mxGeometry x="-0.25" relative="1" as="geometry">
            <mxPoint x="400" y="1180" as="sourcePoint" />
            <mxPoint x="285" y="1124" as="targetPoint" />
            <mxPoint as="offset" />
          </mxGeometry>
        </mxCell>
        <mxCell id="Y3pDpvInY4SfBalGoj8F-6" value="" style="endArrow=none;html=1;rounded=0;exitX=0.5;exitY=0.5;exitDx=0;exitDy=0;exitPerimeter=0;entryX=0;entryY=0.5;entryDx=0;entryDy=0;" parent="1" source="zhgyyv9RaAxmv2rtKqCu-15" target="rDj5MFoZY1iwBANG8hvP-5" edge="1">
          <mxGeometry width="50" height="50" relative="1" as="geometry">
            <mxPoint x="95" y="1240" as="sourcePoint" />
            <mxPoint x="210" y="1240" as="targetPoint" />
          </mxGeometry>
        </mxCell>
        <mxCell id="Y3pDpvInY4SfBalGoj8F-9" value="Update room status" style="ellipse;whiteSpace=wrap;html=1;align=center;fillColor=#fff2cc;strokeColor=light-dark(#000000, #6d5100);strokeWidth=2;" parent="1" vertex="1">
          <mxGeometry x="760" y="1270" width="100" height="40" as="geometry" />
        </mxCell>
        <mxCell id="Y3pDpvInY4SfBalGoj8F-10" value="&amp;lt;&amp;lt;include&amp;gt;&amp;gt;" style="html=1;verticalAlign=bottom;endArrow=open;dashed=1;endSize=8;curved=0;rounded=0;entryX=1;entryY=0;entryDx=0;entryDy=0;exitX=0;exitY=1;exitDx=0;exitDy=0;" parent="1" source="Y3pDpvInY4SfBalGoj8F-9" target="rDj5MFoZY1iwBANG8hvP-9" edge="1">
          <mxGeometry x="-0.1111" relative="1" as="geometry">
            <mxPoint x="740" y="1379.57" as="sourcePoint" />
            <mxPoint x="650" y="1379.57" as="targetPoint" />
            <mxPoint as="offset" />
          </mxGeometry>
        </mxCell>
        <mxCell id="Y3pDpvInY4SfBalGoj8F-11" value="Refuse resident status update" style="ellipse;whiteSpace=wrap;html=1;align=center;fillColor=#fff2cc;strokeColor=light-dark(#000000, #6d5100);strokeWidth=2;" parent="1" vertex="1">
          <mxGeometry x="560" y="1490" width="100" height="40" as="geometry" />
        </mxCell>
        <mxCell id="Y3pDpvInY4SfBalGoj8F-12" value="&amp;lt;&amp;lt;extend&amp;gt;&amp;gt;" style="html=1;verticalAlign=bottom;endArrow=open;dashed=1;endSize=8;curved=0;rounded=0;entryX=1;entryY=1;entryDx=0;entryDy=0;exitX=0;exitY=0;exitDx=0;exitDy=0;" parent="1" source="Y3pDpvInY4SfBalGoj8F-11" target="rDj5MFoZY1iwBANG8hvP-8" edge="1">
          <mxGeometry x="0.0539" y="7" relative="1" as="geometry">
            <mxPoint x="585" y="1394" as="sourcePoint" />
            <mxPoint x="485" y="1436" as="targetPoint" />
            <mxPoint as="offset" />
          </mxGeometry>
        </mxCell>
        <mxCell id="Y3pDpvInY4SfBalGoj8F-13" value="Condition: manager decided not to update resident status&lt;div&gt;Extension point:&amp;nbsp;information validation unsuccessful&lt;/div&gt;" style="whiteSpace=wrap;html=1;align=left;" parent="1" vertex="1">
          <mxGeometry x="400" y="1540" width="170" height="65" as="geometry" />
        </mxCell>
        <mxCell id="Y3pDpvInY4SfBalGoj8F-14" value="" style="html=1;verticalAlign=bottom;endArrow=open;dashed=1;endSize=8;curved=0;rounded=0;exitX=0.5;exitY=0;exitDx=0;exitDy=0;" parent="1" source="Y3pDpvInY4SfBalGoj8F-13" edge="1">
          <mxGeometry x="0.75" y="-30" relative="1" as="geometry">
            <mxPoint x="495" y="1345" as="sourcePoint" />
            <mxPoint x="530" y="1480" as="targetPoint" />
            <mxPoint as="offset" />
          </mxGeometry>
        </mxCell>
        <mxCell id="Y3pDpvInY4SfBalGoj8F-15" value="Notify customer" style="ellipse;whiteSpace=wrap;html=1;align=center;fillColor=#fff2cc;strokeColor=light-dark(#000000, #6d5100);strokeWidth=2;" parent="1" vertex="1">
          <mxGeometry x="760" y="1430" width="100" height="40" as="geometry" />
        </mxCell>
        <mxCell id="Y3pDpvInY4SfBalGoj8F-16" value="&amp;lt;&amp;lt;include&amp;gt;&amp;gt;" style="html=1;verticalAlign=bottom;endArrow=open;dashed=1;endSize=8;curved=0;rounded=0;entryX=1;entryY=1;entryDx=0;entryDy=0;exitX=0;exitY=0;exitDx=0;exitDy=0;" parent="1" source="Y3pDpvInY4SfBalGoj8F-15" target="rDj5MFoZY1iwBANG8hvP-9" edge="1">
          <mxGeometry x="-0.1111" relative="1" as="geometry">
            <mxPoint x="770" y="1380" as="sourcePoint" />
            <mxPoint x="670" y="1380" as="targetPoint" />
            <mxPoint as="offset" />
          </mxGeometry>
        </mxCell>
        <mxCell id="Y3pDpvInY4SfBalGoj8F-17" value="&amp;lt;&amp;lt;include&amp;gt;&amp;gt;" style="html=1;verticalAlign=bottom;endArrow=open;dashed=1;endSize=8;curved=0;rounded=0;entryX=1;entryY=0;entryDx=0;entryDy=0;exitX=0;exitY=1;exitDx=0;exitDy=0;" parent="1" source="Y3pDpvInY4SfBalGoj8F-15" target="Y3pDpvInY4SfBalGoj8F-11" edge="1">
          <mxGeometry x="-0.1111" relative="1" as="geometry">
            <mxPoint x="785" y="1506" as="sourcePoint" />
            <mxPoint x="655" y="1394" as="targetPoint" />
            <mxPoint as="offset" />
          </mxGeometry>
        </mxCell>
        <mxCell id="Y3pDpvInY4SfBalGoj8F-18" value="&amp;lt;&amp;lt;include&amp;gt;&amp;gt;" style="html=1;verticalAlign=bottom;endArrow=open;dashed=1;endSize=8;curved=0;rounded=0;entryX=1;entryY=0.5;entryDx=0;entryDy=0;exitX=0;exitY=0.5;exitDx=0;exitDy=0;" parent="1" source="Y3pDpvInY4SfBalGoj8F-19" target="rDj5MFoZY1iwBANG8hvP-9" edge="1">
          <mxGeometry x="-0.1111" relative="1" as="geometry">
            <mxPoint x="770" y="1325" as="sourcePoint" />
            <mxPoint x="655" y="1366" as="targetPoint" />
            <mxPoint as="offset" />
          </mxGeometry>
        </mxCell>
        <mxCell id="Y3pDpvInY4SfBalGoj8F-19" value="Update resident status" style="ellipse;whiteSpace=wrap;html=1;align=center;fillColor=#fff2cc;strokeColor=light-dark(#000000, #6d5100);strokeWidth=2;" parent="1" vertex="1">
          <mxGeometry x="760" y="1350" width="100" height="40" as="geometry" />
        </mxCell>
      </root>
    </mxGraphModel>
  </diagram>
</mxfile>
